# xmcd CD database file
#
# Track frame offsets:
#	150
#	13609
#	25618
#	37028
#	49624
#	67596
#	82660
#	93677
#	112642
#	131044
#	145105
#	158509
#	171760
#	184443
#	197689
#	216603
#
# Disc length: 3050 seconds
#
# Revision: 1
# Processed by: cddbd v1.5.2PL0 Copyright (c) Steve Scherf et al.
# Submitted via: CDex 1.51
#
DISCID=cc0be810
DTITLE=Various Artist - Paris mon amour絲慕巴黎
DYEAR=2005
DGENRE=Jazz
TTITLE0=L'amour est bleu愛是藍色的 -Vicky Leandros
TTITLE1=Les Champs-Elysees香榭大道 -Joe Dassin 
TTITLE2=Poupee de cire, poupee de son蠟娃娃 木娃娃 -France Gall 
TTITLE3=Le dernier train最後一班火車 -Coralie Clement
TTITLE4=Que sera sera順其自然 -Clementine
TTITLE5=Au coin du monde在世界的角落 -Keren Ann
TTITLE6=Comment te dire adieu要如何跟你說再見 -Francoise Hardy
TTITLE7=Ne me quitte pas不要離開我 -Jacques Brel
TTITLE8=Paroles paroles花言巧語 -Dalida en duo avec Alain Delon
TTITLE9=La vie en rose玫瑰人生 -Edith Piaf
TTITLE10=Tombe la neige下雪了 -Salvatore Adamo 
TTITLE11=Le ciel, le soleil et la mer藍天、艷陽和大海 -Francois Deguelt
TTITLE12=Jardin d'hiver冬日花房 -Henri Salvador
TTITLE13=Parlez-moi d'amour對我訴說愛語 -Lucienne Boyer
TTITLE14=Comme d'habitude一如往常 -Claude Francois
TTITLE15=Hymne a l'amour愛的禮讚 -Franck Pourcel and His Orchestra
EXTD=YEAR: 2005
EXTT0=
EXTT1=
EXTT2=
EXTT3=
EXTT4=
EXTT5=
EXTT6=
EXTT7=
EXTT8=
EXTT9=
EXTT10=
EXTT11=
EXTT12=
EXTT13=
EXTT14=
EXTT15=
PLAYORDER=
